<?xml version="1.0" encoding="UTF-8" standalone="no"?>
<!-- Created with Inkscape (http://www.inkscape.org/) -->

<svg
   xmlns:dc="http://purl.org/dc/elements/1.1/"
   xmlns:cc="http://creativecommons.org/ns#"
   xmlns:rdf="http://www.w3.org/1999/02/22-rdf-syntax-ns#"
   xmlns:svg="http://www.w3.org/2000/svg"
   xmlns="http://www.w3.org/2000/svg"
   xmlns:sodipodi="http://sodipodi.sourceforge.net/DTD/sodipodi-0.dtd"
   xmlns:inkscape="http://www.inkscape.org/namespaces/inkscape"
   version="1.0"
   width="660.5592"
   height="372.63324"
   id="svg2"
   sodipodi:version="0.32"
   inkscape:version="0.47pre0 r21549"
   sodipodi:docname="index.svg"
   inkscape:output_extension="org.inkscape.output.svg.inkscape">
  <metadata
     id="metadata20">
    <rdf:RDF>
      <cc:Work
         rdf:about="">
        <dc:format>image/svg+xml</dc:format>
        <dc:type
           rdf:resource="http://purl.org/dc/dcmitype/StillImage" />
      </cc:Work>
    </rdf:RDF>
  </metadata>
  <sodipodi:namedview
     inkscape:window-height="752"
     inkscape:window-width="1280"
     inkscape:pageshadow="2"
     inkscape:pageopacity="0.0"
     guidetolerance="10.0"
     gridtolerance="10.0"
     objecttolerance="10.0"
     borderopacity="1.0"
     bordercolor="#666666"
     pagecolor="#ffffff"
     id="base"
     showgrid="false"
     inkscape:zoom="1.09"
     inkscape:cx="-105.89484"
     inkscape:cy="340.7828"
     inkscape:window-x="0"
     inkscape:window-y="0"
     inkscape:current-layer="g7197"
     inkscape:window-maximized="0" />
  <defs
     id="defs4">
    <inkscape:perspective
       sodipodi:type="inkscape:persp3d"
       inkscape:vp_x="0 : 526.18109 : 1"
       inkscape:vp_y="0 : 1000 : 0"
       inkscape:vp_z="744.09448 : 526.18109 : 1"
       inkscape:persp3d-origin="372.04724 : 350.78739 : 1"
       id="perspective22" />
  </defs>
  <g
     id="layer1"
     transform="translate(-47.858795,-259.05427)">
    <g
       transform="matrix(0.7667165,0,0,0.7667165,-95.45182,-12.392435)"
       id="g3354">
      <rect
         width="158"
         height="58"
         rx="2"
         ry="2"
         x="213"
         y="394.36218"
         id="rect2575"
         style="fill:#ff0066;fill-opacity:1;stroke:none" />
      <path
         d="m 215,394.45472 c -1.108,0 -2,0.892 -2,2 l 0,2 c 0,-1.108 0.892,-2 2,-2 l 154,0 c 1.108,0 2,0.892 2,2 l 0,-2 c 0,-1.108 -0.892,-2 -2,-2 l -154,0 z"
         id="path3396"
         style="fill:#ffd5e5;fill-opacity:1;stroke:none" />
      <path
         d="m 241.91914,432.26473 c -1.90748,2.99575 -5.20163,4.49363 -9.88248,4.49363 -7.57131,0 -11.35696,-4.67501 -11.35696,-14.02505 0,-4.24787 1.04149,-7.57128 3.12448,-9.97025 2.2117,-2.52764 5.41224,-3.79147 9.60163,-3.7915 2.55106,3e-5 4.66915,0.46811 6.35428,1.40426 l -0.64947,4.00214 c -1.86067,-0.83083 -3.58088,-1.24626 -5.16066,-1.24628 -4.8213,2e-5 -7.23195,3.25907 -7.23194,9.77716 -1e-5,2.80853 0.2984,4.94418 0.89522,6.40694 0.90105,2.20001 2.54521,3.30002 4.93246,3.30001 2.15318,10e-6 3.59255,-0.5617 4.3181,-1.68511 l 0,-5.49417 -4.3181,0 0,-3.59842 9.37344,0 0,10.42664 m 21.95912,-5.14311 -13.34047,0 c -1e-5,4.02556 1.80212,6.03833 5.4064,6.03832 1.88403,10e-6 3.89095,-0.48563 6.02077,-1.45692 l 0.87766,3.08938 c -2.32875,1.31064 -4.95588,1.96596 -7.88141,1.96596 -3.30002,0 -5.82769,-0.95958 -7.58301,-2.87873 -1.69682,-1.84894 -2.54522,-4.44097 -2.54522,-7.77609 0,-3.25319 0.80745,-5.84522 2.42235,-7.7761 1.73191,-2.07126 4.19522,-3.1069 7.38992,-3.10692 3.08936,2e-5 5.42394,0.90694 7.00375,2.72075 1.48615,1.72024 2.22924,4.14258 2.22926,7.26705 l 0,1.9133 m -5.28353,-2.94894 c -0.21065,-3.79149 -1.52715,-5.68724 -3.94948,-5.68726 -2.52768,2e-5 -3.87928,1.89577 -4.0548,5.68726 l 8.00428,0 m 27.11978,12.11174 -5.6697,0 0,-14.41122 c -2e-5,-0.6553 -0.29257,-1.19946 -0.87767,-1.63245 -0.52661,-0.37445 -1.13512,-0.56169 -1.82554,-0.56171 -1.45107,2e-5 -2.69735,0.60853 -3.73884,1.82554 l 0,14.77984 -5.68725,0 0,-20.51975 5.10799,0 0.36862,3.2649 c 0.49149,-1.1936 1.44521,-2.12977 2.86118,-2.80852 1.24042,-0.59679 2.57447,-0.89519 4.00215,-0.89521 3.63935,2e-5 5.45904,2.18247 5.45906,6.54736 l 0,14.41122 m 22.95966,-9.1628 -13.34047,0 c -1e-5,4.02556 1.80212,6.03833 5.4064,6.03832 1.88403,10e-6 3.89095,-0.48563 6.02077,-1.45692 l 0.87766,3.08938 c -2.32875,1.31064 -4.95588,1.96596 -7.88141,1.96596 -3.30002,0 -5.82769,-0.95958 -7.58301,-2.87873 -1.69682,-1.84894 -2.54522,-4.44097 -2.54522,-7.77609 0,-3.25319 0.80745,-5.84522 2.42235,-7.7761 1.73191,-2.07126 4.19522,-3.1069 7.38992,-3.10692 3.08936,2e-5 5.42394,0.90694 7.00375,2.72075 1.48615,1.72024 2.22924,4.14258 2.22926,7.26705 l 0,1.9133 m -5.28353,-2.94894 c -0.21065,-3.79149 -1.52715,-5.68724 -3.94948,-5.68726 -2.52768,2e-5 -3.87928,1.89577 -4.0548,5.68726 l 8.00428,0 m 21.25699,-3.45799 c -1.59151,10e-6 -2.93141,0.4564 -4.0197,1.36915 -1.39257,1.17023 -2.08884,2.84949 -2.08884,5.03778 l 0,9.1628 -5.6697,0 0,-20.51975 5.52928,0 0,4.26544 c 0.28084,-1.24041 0.8835,-2.31701 1.80798,-3.2298 1.00638,-0.98296 2.11808,-1.47445 3.33512,-1.47447 0.49148,2e-5 0.8601,0.0351 1.10586,0.10532 l 0,5.28353 m 22.29263,-4.95002 -11.83089,26.62829 -4.75693,0 3.28246,-6.89843 -8.05695,-19.72986 6.17875,0 5.03778,13.28781 5.52928,-13.28781 4.6165,0 m 15.72772,14.2708 c -10e-6,2.41065 -0.92449,4.18352 -2.77341,5.31863 -1.50959,0.93617 -3.54577,1.40426 -6.10854,1.40426 -2.41065,0 -4.38831,-0.42128 -5.933,-1.26383 l 0.66703,-3.38778 c 1.6734,0.88937 3.28245,1.33405 4.82714,1.33405 1.01808,0 1.91915,-0.16383 2.7032,-0.49149 1.02978,-0.43298 1.54468,-1.10586 1.54469,-2.01863 -1e-5,-0.94787 -0.53831,-1.70266 -1.6149,-2.26437 -0.26916,-0.14042 -1.21703,-0.46223 -2.84363,-0.96543 -1.69682,-0.52659 -2.91969,-1.28138 -3.66863,-2.26437 -0.78404,-1.01807 -1.17607,-2.39893 -1.17606,-4.14257 -1e-5,-2.01275 0.79574,-3.53988 2.38724,-4.5814 1.34574,-0.87764 3.07766,-1.31647 5.19576,-1.31649 2.1883,2e-5 4.06064,0.39789 5.61704,1.19362 l -0.47394,3.07182 c -1.21703,-0.66701 -2.83778,-1.00052 -4.86225,-1.00053 -0.86597,1e-5 -1.60905,0.13459 -2.22926,0.40372 -0.86597,0.37449 -1.29895,0.92449 -1.29894,1.65001 -1e-5,0.81916 0.51489,1.44523 1.54469,1.87819 0.0702,0.0351 0.93616,0.29842 2.59788,0.7899 1.98935,0.59682 3.41702,1.32821 4.28299,2.19416 1.07659,1.07661 1.61489,2.56278 1.6149,4.45853"
         id="text2571"
         style="font-size:35.94906616px;font-style:normal;font-weight:normal;fill:#ffffff;fill-opacity:1;stroke:none;font-family:Bitstream Vera Sans" />
      <path
         d="m 215,395.19016 c -1.108,0 -2,0.892 -2,2 l 0,2 c 0,-1.108 0.892,-2 2,-2 l 154,0 c 1.108,0 2,0.892 2,2 l 0,-2 c 0,-1.108 -0.892,-2 -2,-2 l -154,0 z"
         id="rect2579"
         style="fill:#ff80b2;fill-opacity:1;stroke:none" />
      <path
         d="m 215,454.375 c -1.108,0 -2,-0.892 -2,-2 l 0,-2 c 0,1.108 0.892,2 2,2 l 154,0 c 1.108,0 2,-0.892 2,-2 l 0,2 c 0,1.108 -0.892,2 -2,2 l -154,0 z"
         id="path3352"
         style="fill:#800033;fill-opacity:1;stroke:none" />
    </g>
    <text
       x="210"
       y="320.36218"
       id="text3362"
       xml:space="preserve"
       style="font-size:32px;font-style:normal;font-weight:normal;fill:#000000;fill-opacity:1;stroke:none;font-family:Bitstream Vera Sans"><tspan
         x="210"
         y="320.36218"
         id="tspan3366"
         style="font-size:40px">Oh, how I wish I could be</tspan><tspan
         x="210"
         y="370.36218"
         id="tspan3370"
         style="font-size:40px">a web framework for Io</tspan><tspan
         x="210"
         y="404.41418"
         id="tspan3394"
         style="font-size:24px;fill:#e6e6e6">and run on Linux</tspan></text>
    <path
       d="m 199.90625,259.0625 a 0.30003001,0.30003001 0 0 0 -0.0937,0.0625 0.30003001,0.30003001 0 0 0 -0.0625,0.0625 0.30003001,0.30003001 0 0 0 -0.0625,0.1875 l 0,372 a 0.3125,0.3125 0 0 0 0.625,0 l 0,-372 a 0.30003001,0.30003001 0 0 0 -0.0937,-0.21875 0.30003001,0.30003001 0 0 0 -0.0937,-0.0625 0.30003001,0.30003001 0 0 0 -0.21875,-0.0312 z"
       id="path3372"
       style="font-size:medium;font-style:normal;font-variant:normal;font-weight:normal;font-stretch:normal;text-indent:0;text-align:start;text-decoration:none;line-height:normal;letter-spacing:normal;word-spacing:normal;text-transform:none;direction:ltr;block-progression:tb;writing-mode:lr-tb;text-anchor:start;opacity:1;color:#000000;fill:#93ac93;fill-opacity:1;fill-rule:nonzero;stroke:none;stroke-width:0.60000002;marker:none;visibility:visible;display:inline;overflow:visible;enable-background:accumulate;font-family:Bitstream Vera Sans;-inkscape-font-specification:Bitstream Vera Sans" />
    <text
       x="189.48828"
       y="424.36218"
       id="text3380"
       xml:space="preserve"
       style="font-size:20px;font-style:normal;font-variant:normal;font-weight:normal;font-stretch:normal;text-align:end;line-height:200%;writing-mode:lr-tb;text-anchor:end;fill:#000000;fill-opacity:1;stroke:none;font-family:Bitstream Vera Sans;-inkscape-font-specification:Bitstream Vera Sans"
       sodipodi:linespacing="200%"><tspan
         x="189.48828"
         y="424.36218"
         id="tspan3382">About</tspan><tspan
         x="189.48828"
         y="464.36218"
         id="tspan3388">Docs</tspan></text>
    <g
       id="g7197"
       transform="matrix(0.99915068,0,0,0.99915068,-0.06570714,0.25486176)">
      <rect
         style="fill:#ff0066;fill-opacity:1;stroke:none"
         id="rect7179"
         y="274.51385"
         x="-77.364433"
         ry="1.8751913"
         rx="1.8751913"
         height="24.020401"
         width="24.020401" />
      <path
         id="path7183"
         transform="translate(47.858795,259.05427)"
         d="m -118.4375,15.65625 c -2.70602,2.1e-5 -4.97606,0.567427 -6.78125,1.71875 l 0,21.28125 c 0,0.458483 0.58821,0.8125 1.34375,0.8125 l 10.75,0 c 0.99593,-0.639963 1.82147,-1.483435 2.46875,-2.5 l 0,-9.53125 -8.59375,0 0,3.28125 3.96875,0 0,5.03125 c -0.66458,1.029 -1.99651,1.5625 -3.96875,1.5625 -2.18664,0 -3.67467,-1.01611 -4.5,-3.03125 -0.54667,-1.33984 -0.81251,-3.30248 -0.8125,-5.875 -1e-5,-5.97033 2.17761,-8.93749 6.59375,-8.9375 1.44702,10e-6 3.04569,0.36401 4.75,1.125 l 0.59375,-3.65625 c -1.54352,-0.85748 -3.47582,-1.28122 -5.8125,-1.28125 z"
         style="font-size:35.94906616px;font-style:normal;font-weight:normal;fill:#ffffff;fill-opacity:1;stroke:none;font-family:Bitstream Vera Sans" />
      <g
         id="g7204"
         transform="translate(0,0.51925498)">
        <path
           d="m -75.831002,273.9946 c -0.849522,0 -1.533433,0.68392 -1.533433,1.53344 l 0,1.53343 c 0,-0.84952 0.683911,-1.53343 1.533433,-1.53343 l 20.953535,0 c 0.849522,0 1.533433,0.68391 1.533433,1.53343 l 0,-1.53343 c 0,-0.84952 -0.683911,-1.53344 -1.533433,-1.53344 l -20.953535,0 z"
           id="path7181"
           style="fill:#ffd5e5;fill-opacity:1;stroke:none"
           sodipodi:nodetypes="ccccccccc" />
        <path
           d="m -75.831002,274.55848 c -0.849522,0 -1.533433,0.68391 -1.533433,1.53343 l 0,1.53343 c 0,-0.84952 0.683911,-1.53343 1.533433,-1.53343 l 20.936967,0 c 0.849522,0 1.533433,0.68391 1.533433,1.53343 l 0,-1.53343 c 0,-0.84952 -0.683911,-1.53343 -1.533433,-1.53343 l -20.936967,0 z"
           id="path7185"
           style="fill:#ff80b2;fill-opacity:1;stroke:none"
           sodipodi:nodetypes="ccccccccc" />
      </g>
      <path
         sodipodi:nodetypes="ccccccccc"
         style="fill:#800033;fill-opacity:1;stroke:none"
         id="path7187"
         d="m -75.831002,298.53426 c -0.849522,0 -1.533433,-0.68391 -1.533433,-1.53343 l 0,-1.53343 c 0,0.84952 0.683911,1.53343 1.533433,1.53343 l 20.902741,0.019 c 0.849522,0 1.590821,-0.62652 1.590821,-1.47604 l 0,1.53343 c 0,0.84952 -0.741299,1.47604 -1.590821,1.47604 l -20.902741,-0.019 z" />
    </g>
  </g>
</svg>
