<?xml version="1.0" encoding="UTF-8" standalone="no"?>
<!-- Created with Inkscape (http://www.inkscape.org/) -->

<svg
   xmlns:svg="http://www.w3.org/2000/svg"
   xmlns="http://www.w3.org/2000/svg"
   version="1.0"
   width="24.006588"
   height="24.019007"
   id="svg2">
  <defs
     id="defs4" />
  <g
     transform="translate(77.364435,-274.53555)"
     id="layer1">
    <g
       id="g7216">
      <rect
         width="24"
         height="24"
         rx="1.8735987"
         ry="1.8735987"
         x="-77.364433"
         y="274.53555"
         id="rect7179"
         style="fill:#ff0066;fill-opacity:1;stroke:none" />
      <path
         d="m -70.584469,274.73206 c -2.703721,2e-5 -4.971833,0.56695 -6.77549,1.71729 l 0,21.26318 c 0,0.45809 0.58771,0.81181 1.342609,0.81181 l 10.740869,0 c 0.995084,-0.63942 1.819923,-1.48218 2.466654,-2.49788 l 0,-9.52315 -8.586452,0 0,3.27846 3.96538,0 0,5.02698 c -0.664016,1.02812 -1.994815,1.56117 -3.96538,1.56117 -2.184782,0 -3.671549,-1.01525 -4.496178,-3.02868 -0.546205,-1.3387 -0.81182,-3.29967 -0.81181,-5.87001 -1e-5,-5.96526 2.175761,-8.9299 6.58815,-8.92991 1.445791,1e-5 3.043103,0.36371 4.745966,1.12405 l 0.593246,-3.65315 c -1.542209,-0.85675 -3.472868,-1.28013 -5.807564,-1.28016 z"
         id="path7183"
         style="font-size:35.94906616px;font-style:normal;font-weight:normal;fill:#ffffff;fill-opacity:1;stroke:none;font-family:Bitstream Vera Sans" />
      <path
         d="m -75.832304,274.53557 c -0.848801,0 -1.532131,0.68334 -1.532131,1.53213 l 0,1.53213 c 0,-0.8488 0.68333,-1.53213 1.532131,-1.53213 l 20.935738,0 c 0.848801,0 1.532131,0.68333 1.532131,1.53213 l 0,-1.53213 c 0,-0.84879 -0.68333,-1.53213 -1.532131,-1.53213 l -20.935738,0 z"
         id="path7181"
         style="fill:#ffd5e5;fill-opacity:1;stroke:none" />
      <path
         d="m -75.832304,275.09897 c -0.848801,0 -1.532131,0.68333 -1.532131,1.53213 l 0,1.53212 c 0,-0.8488 0.68333,-1.53212 1.532131,-1.53212 l 20.919184,0 c 0.848801,0 1.532131,0.68332 1.532131,1.53212 l 0,-1.53212 c 0,-0.8488 -0.68333,-1.53213 -1.532131,-1.53213 l -20.919184,0 z"
         id="path7185"
         style="fill:#ff80b2;fill-opacity:1;stroke:none" />
      <path
         d="m -75.832304,298.53557 c -0.848801,0 -1.532131,-0.68333 -1.532131,-1.53213 l 0,-1.53212 c 0,0.84879 0.68333,1.53212 1.532131,1.53212 l 20.884988,0.019 c 0.8488,0 1.589469,-0.62599 1.589469,-1.47479 l 0,1.53213 c 0,0.8488 -0.740669,1.47478 -1.589469,1.47478 l -20.884988,-0.019 z"
         id="path7187"
         style="fill:#800033;fill-opacity:1;stroke:none" />
    </g>
  </g>
</svg>
